<svg xmlns="http://www.w3.org/2000/svg"  viewBox="0 0 100 100" width="100px" height="100px"><polygon fill="#6accff" points="62.5,27.5 61.5,42.5 79.5,42.5 79.5,27.5"/><path fill="#375ca9" d="M81.33,50.245l-11.428-6.657v19.456H82.58V52.42C82.58,51.523,82.104,50.696,81.33,50.245z"/><path fill="#3a83c1" d="M28.185,26.291h16.781V44.14H28.185V26.291z"/><path fill="#40a6dd" d="M62.5,27.5v15h-17v-15"/><path fill="#2d80d3" d="M44.967,42.08h17.781l-0.075,15.103H45.197L44.967,42.08z"/><path fill="#375ca9" d="M45.197,57.183h17.476l0.075,15.637H44.967L45.197,57.183"/><path fill="#40a6dd" d="M62.5,42.5h17v15h-17V42.5z"/><path fill="#3a83c1" d="M62.748,57.183h16.781V72.82H62.748V57.183z"/><path fill="#375ca9" d="M80,27.462H28V22.73c0-2.061,1.521-3.73,3.399-3.73h45.202C78.479,19,80,20.669,80,22.73V27.462z"/><path fill="#3a83c1" d="M30,80c0.567,0.441,1.983,1.211,2.758,1.211h21.144h25.172c1.854,0,3.356-1.502,3.356-3.356L83,53.2 L30,80z"/><rect width="59.481" height=".999" x="26.259" y="66.5" fill="#1f212b" transform="rotate(-26.967 55.994 66.994)"/><path fill="#40a6dd" d="M32.913,82h46.022l1.565-1.5l-53-27l0.414,23.588C27.962,79.815,30.186,82,32.913,82z"/><path fill="#1f212b" d="M68.467,74.752c-0.076,0-0.153-0.018-0.226-0.054L27.274,53.946 c-0.247-0.125-0.346-0.426-0.221-0.672c0.125-0.247,0.427-0.342,0.672-0.221l40.967,20.752c0.247,0.125,0.346,0.426,0.221,0.672 C68.825,74.651,68.648,74.752,68.467,74.752z"/><path fill="#1f212b" d="M72.511,76.852c-0.078,0-0.156-0.018-0.23-0.057l-1.947-1.011c-0.245-0.127-0.341-0.429-0.213-0.674 c0.127-0.244,0.428-0.342,0.674-0.213l1.947,1.011c0.245,0.127,0.341,0.429,0.213,0.674C72.865,76.753,72.691,76.852,72.511,76.852 z"/><path fill="#1f212b" d="M80.5,81c-0.078,0-0.157-0.018-0.23-0.057l-5.976-3.103c-0.245-0.127-0.341-0.429-0.213-0.674 s0.432-0.343,0.674-0.213l5.976,3.103c0.245,0.127,0.341,0.429,0.213,0.674C80.854,80.901,80.681,81,80.5,81z"/><path fill="#1f212b" d="M78,83H33c-3.309,0-6-2.691-6-6V22c0-2.206,1.794-4,4-4h46c2.206,0,4,1.794,4,4v27.127 c1.724,0.444,3,2.013,3,3.873v24C84,80.309,81.309,83,78,83z M31,20c-1.103,0-2,0.897-2,2v55c0,2.206,1.794,4,4,4h45 c2.206,0,4-1.794,4-4V53c0-1.103-0.897-2-2-2c-0.553,0-1-0.447-1-1V22c0-1.103-0.897-2-2-2H31z"/><path fill="#1f212b" d="M79.5,28h-51c-0.276,0-0.5-0.224-0.5-0.5s0.224-0.5,0.5-0.5h51c0.276,0,0.5,0.224,0.5,0.5 S79.776,28,79.5,28z"/><polygon fill="#3a83c1" points="45.5,42.5 45.5,57.5 48.5,57.5 62.5,57.5 62.5,42.5"/><path fill="#1f212b" d="M62.5,37c-0.276,0-0.5-0.224-0.5-0.5v-9c0-0.276,0.224-0.5,0.5-0.5s0.5,0.224,0.5,0.5v9 C63,36.776,62.776,37,62.5,37z"/><path fill="#1f212b" d="M62.5,64.2c-0.276,0-0.5-0.224-0.5-0.5V39.5c0-0.276,0.224-0.5,0.5-0.5s0.5,0.224,0.5,0.5v24.2 C63,63.977,62.776,64.2,62.5,64.2z"/><polygon fill="#1f212b" points="80,55 79,55 79,43 45.5,43 45.5,42 80,42"/><path fill="#1f212b" d="M74.5,58h-26c-0.276,0-0.5-0.224-0.5-0.5s0.224-0.5,0.5-0.5h26c0.276,0,0.5,0.224,0.5,0.5 S74.776,58,74.5,58z"/><path fill="#1f212b" d="M45.5,43c-0.276,0-0.5-0.224-0.5-0.5V28H28.5c-0.276,0-0.5-0.224-0.5-0.5s0.224-0.5,0.5-0.5H46v15.5 C46,42.776,45.776,43,45.5,43z"/><path fill="#3a83c1" d="M41.6,68.005H14.4c-1.878,0-3.4-1.521-3.4-3.4v-27.2c0-1.879,1.521-3.4,3.4-3.4h27.2 c1.879,0,3.4,1.521,3.4,3.4v27.2C45,66.483,43.479,68.005,41.6,68.005z"/><path fill="#fdfcee" d="M28,40.568c-6.116,0-9.8,4.673-9.8,10.437s3.67,10.437,9.8,10.437c6.132,0,9.8-4.673,9.8-10.435 C37.8,45.241,34.116,40.568,28,40.568z M28,57.919c-3.47,0-5.544-3.094-5.544-6.912S24.54,44.095,28,44.095 s5.546,3.096,5.546,6.912S31.468,57.919,28,57.919z"/><path fill="#1f212b" d="M28,61.941c-6.064,0-10.3-4.497-10.3-10.937S21.936,40.068,28,40.068s10.3,4.498,10.3,10.938 C38.3,57.445,34.064,61.941,28,61.941z M28,41.068c-5.476,0-9.3,4.086-9.3,9.937s3.824,9.937,9.3,9.937s9.3-4.085,9.3-9.935 C37.3,45.155,33.476,41.068,28,41.068z M28,58.419c-3.559,0-6.044-3.048-6.044-7.412s2.485-7.412,6.044-7.412 c3.56,0,6.046,3.048,6.046,7.412S31.56,58.419,28,58.419z M28,44.595c-2.97,0-5.044,2.637-5.044,6.412S25.03,57.419,28,57.419 c2.971,0,5.046-2.637,5.046-6.412S30.971,44.595,28,44.595z"/><path fill="#1f212b" d="M41.6,69.005H14.4c-2.426,0-4.4-1.974-4.4-4.4V37.405c0-2.427,1.974-4.4,4.4-4.4H41.6 c2.427,0,4.4,1.974,4.4,4.4v27.199C46,67.031,44.026,69.005,41.6,69.005z M14.4,35.005c-1.323,0-2.4,1.077-2.4,2.4v27.199 c0,1.323,1.077,2.4,2.4,2.4H41.6c1.323,0,2.4-1.077,2.4-2.4V37.405c0-1.323-1.077-2.4-2.4-2.4H14.4z"/></svg>