<svg xmlns="http://www.w3.org/2000/svg"  viewBox="0 0 100 100" width="100px" height="100px"><path fill="#bea9b2" d="M69.268,81.921h-39c-6.6,0-12-5.4-12-12v-39c0-6.6,5.4-12,12-12h39c6.6,0,12,5.4,12,12v39C81.268,76.521,75.868,81.921,69.268,81.921z"/><path fill="#1f212b" d="M69.768,81.921h-39c-6.904,0-12.5-5.596-12.5-12.5v-39c0-6.904,5.596-12.5,12.5-12.5h39c6.904,0,12.5,5.596,12.5,12.5v39C82.268,76.325,76.671,81.921,69.768,81.921z M19.268,30.421v39c0,6.351,5.149,11.5,11.5,11.5h39c6.351,0,11.5-5.149,11.5-11.5v-39c0-6.351-5.149-11.5-11.5-11.5h-39C24.416,18.921,19.268,24.07,19.268,30.421z"/><path fill="#1f212b" d="M66.43 77.921H33.105c-5.985 0-10.837-4.852-10.837-10.837V33.758c0-5.985 4.852-10.837 10.837-10.837h33.663c.276 0 .5.224.5.5s-.224.5-.5.5H33.105c-5.433 0-9.837 4.404-9.837 9.837v33.325c0 5.433 4.405 9.838 9.838 9.838h33.325c5.433 0 9.837-4.404 9.837-9.837V48.421c0-.276.224-.5.5-.5s.5.224.5.5v18.662C77.268 73.069 72.415 77.921 66.43 77.921zM76.768 45.5c-.276 0-.5-.224-.5-.5v-4c0-.276.224-.5.5-.5s.5.224.5.5v4C77.268 45.277 77.044 45.5 76.768 45.5zM76.768 39.5c-.276 0-.5-.224-.5-.5v-2c0-.276.224-.5.5-.5s.5.224.5.5v2C77.268 39.277 77.044 39.5 76.768 39.5z"/><path fill="#fdfcee" d="M52.827,61.808h-3.384l-2.196-5.796H36.05l-2.16,5.796h-3.384l9.54-23.976h3.24L52.827,61.808z M37.058,53.348h9.217l-4.608-12.492L37.058,53.348z"/><path fill="#1f212b" d="M52.826,62.308h-3.384c-0.208,0-0.394-0.129-0.468-0.323l-2.074-5.473H36.398l-2.039,5.471c-0.073,0.195-0.26,0.325-0.469,0.325h-3.384c-0.166,0-0.32-0.082-0.414-0.22c-0.093-0.137-0.111-0.312-0.051-0.465l9.54-23.976c0.076-0.19,0.26-0.315,0.465-0.315h3.24c0.205,0,0.389,0.125,0.465,0.315l9.54,23.976c0.061,0.153,0.042,0.328-0.051,0.465C53.147,62.226,52.992,62.308,52.826,62.308z M49.788,61.308h2.301l-9.142-22.976h-2.562l-9.142,22.976h2.299l2.039-5.471c0.073-0.195,0.26-0.325,0.469-0.325h11.196c0.208,0,0.394,0.129,0.468,0.323L49.788,61.308z M46.275,53.848h-9.217c-0.163,0-0.316-0.08-0.41-0.214c-0.094-0.135-0.115-0.306-0.059-0.459l4.608-12.492c0.145-0.393,0.793-0.393,0.938,0l4.608,12.492c0.057,0.153,0.035,0.324-0.059,0.459C46.591,53.768,46.438,53.848,46.275,53.848z M37.776,52.848h7.781L41.666,42.3L37.776,52.848z"/><path fill="#fdfcee" d="M62.834,44.168c1.104,0,2.069,0.18,2.897,0.54c0.828,0.359,1.524,0.852,2.088,1.476s0.984,1.362,1.261,2.214c0.275,0.853,0.413,1.771,0.413,2.754c0,0.984-0.12,1.957-0.359,2.916H58.226c0.023,0.841,0.145,1.597,0.36,2.269s0.545,1.254,0.989,1.746s1.021,0.87,1.729,1.134c0.708,0.265,1.566,0.396,2.574,0.396c0.936,0,1.817-0.096,2.646-0.288c0.828-0.191,1.59-0.432,2.286-0.72l0.432,2.412c-0.768,0.36-1.662,0.643-2.682,0.846c-1.021,0.204-2.07,0.307-3.15,0.307c-1.439,0-2.694-0.234-3.762-0.702c-1.068-0.468-1.95-1.104-2.646-1.908c-0.696-0.804-1.219-1.746-1.566-2.826s-0.521-2.243-0.521-3.492c0-1.247,0.18-2.424,0.54-3.527c0.359-1.104,0.882-2.07,1.565-2.898c0.685-0.828,1.518-1.476,2.502-1.944C60.506,44.401,61.61,44.168,62.834,44.168z M62.726,46.58c-0.696,0-1.309,0.132-1.836,0.396c-0.528,0.265-0.984,0.624-1.368,1.08s-0.684,0.99-0.899,1.602c-0.217,0.612-0.349,1.255-0.396,1.927h8.136c0.072-0.672,0.06-1.314-0.036-1.927c-0.096-0.611-0.287-1.146-0.575-1.602s-0.685-0.815-1.188-1.08C64.058,46.712,63.446,46.58,62.726,46.58z"/><path fill="#1f212b" d="M63.409,62.668c-1.503,0-2.836-0.25-3.963-0.744c-1.132-0.496-2.082-1.182-2.822-2.039c-0.737-0.852-1.298-1.86-1.664-3c-0.362-1.125-0.546-2.352-0.546-3.646c0-1.296,0.19-2.535,0.564-3.683c0.377-1.157,0.935-2.188,1.655-3.062c0.729-0.881,1.627-1.58,2.673-2.077c1.047-0.498,2.233-0.75,3.527-0.75c1.168,0,2.21,0.195,3.097,0.582c0.89,0.386,1.65,0.924,2.26,1.599s1.068,1.48,1.365,2.395c0.29,0.898,0.438,1.877,0.438,2.908c0,1.02-0.126,2.042-0.374,3.037c-0.056,0.223-0.256,0.379-0.485,0.379h-10.38c0.048,0.586,0.151,1.128,0.308,1.615c0.193,0.603,0.491,1.129,0.885,1.564c0.388,0.43,0.903,0.766,1.532,1c0.646,0.242,1.453,0.364,2.399,0.364c0.895,0,1.746-0.093,2.532-0.275c0.796-0.184,1.538-0.417,2.208-0.694c0.141-0.058,0.298-0.05,0.432,0.023c0.133,0.072,0.226,0.201,0.252,0.351l0.432,2.412c0.04,0.223-0.075,0.444-0.279,0.54c-0.802,0.377-1.742,0.674-2.797,0.884C65.609,62.562,64.515,62.668,63.409,62.668z M62.834,44.668c-1.145,0-2.187,0.22-3.098,0.652c-0.913,0.435-1.697,1.044-2.331,1.812c-0.642,0.776-1.138,1.696-1.476,2.735c-0.342,1.047-0.516,2.182-0.516,3.372s0.167,2.313,0.497,3.339c0.325,1.011,0.819,1.903,1.469,2.652c0.643,0.744,1.473,1.342,2.468,1.777c1,0.438,2.198,0.66,3.562,0.66c1.04,0,2.067-0.1,3.053-0.297c0.823-0.164,1.567-0.384,2.218-0.654l-0.256-1.429c-0.561,0.202-1.16,0.377-1.788,0.522c-0.859,0.199-1.787,0.301-2.758,0.301c-1.066,0-1.991-0.144-2.749-0.427c-0.78-0.291-1.428-0.718-1.925-1.268c-0.489-0.542-0.857-1.19-1.094-1.928c-0.23-0.718-0.36-1.527-0.385-2.408c-0.004-0.135,0.048-0.266,0.142-0.362s0.224-0.151,0.358-0.151h10.511c0.171-0.796,0.257-1.606,0.257-2.416c0-0.927-0.131-1.802-0.389-2.601c-0.253-0.778-0.642-1.463-1.156-2.032c-0.513-0.568-1.157-1.022-1.916-1.352C64.772,44.836,63.864,44.668,62.834,44.668z M66.361,52.084h-8.136c-0.139,0-0.271-0.058-0.366-0.159s-0.143-0.238-0.133-0.376c0.051-0.716,0.193-1.408,0.424-2.059c0.235-0.665,0.567-1.257,0.988-1.757c0.426-0.505,0.939-0.91,1.527-1.205c1.21-0.604,3-0.585,4.127,0.004c0.582,0.306,1.046,0.729,1.38,1.257c0.323,0.511,0.54,1.113,0.646,1.791c0.103,0.655,0.115,1.348,0.039,2.058C66.831,51.892,66.617,52.084,66.361,52.084z M58.782,51.084H65.9c0.021-0.466-0.001-0.918-0.068-1.35c-0.085-0.542-0.254-1.017-0.504-1.412c-0.242-0.383-0.568-0.679-0.998-0.904c-0.844-0.44-2.292-0.457-3.216,0.005c-0.465,0.233-0.872,0.555-1.209,0.955c-0.343,0.407-0.616,0.894-0.811,1.445C58.951,50.227,58.847,50.649,58.782,51.084z"/><path fill="#1f212b" d="M69.268,82.921h-39c-7.168,0-13-5.832-13-13v-39c0-7.168,5.832-13,13-13h39c7.168,0,13,5.832,13,13v39C82.268,77.089,76.436,82.921,69.268,82.921z M30.268,19.921c-6.065,0-11,4.935-11,11v39c0,6.065,4.935,11,11,11h39c6.065,0,11-4.935,11-11v-39c0-6.065-4.935-11-11-11H30.268z"/></svg>