<svg xmlns="http://www.w3.org/2000/svg" width="100" height="100" baseProfile="basic" viewBox="0 0 100 100"><path fill="#f59173" d="M79.835,37.982c-0.184-0.211-26.805-20.267-26.805-20.267c-1.797-1.353-4.352-0.995-5.707,0.793 c-1.356,1.789-0.999,4.334,0.797,5.684l9.188,6.907H23.782c-2.25,0-4.075,1.817-4.075,4.059c0,2.242,1.825,4.059,4.075,4.059 h16.806L11.742,62.763c-1.741,1.42-1.995,3.978-0.569,5.711c0.806,0.98,1.975,1.486,3.154,1.486c0.909,0,1.823-0.301,2.581-0.92 l17.159-14.006c-0.059,0.657-0.098,1.319-0.098,1.989c0,13.645,12.543,24.706,28.015,24.706S90,70.668,90,57.024 C90,49.361,86.044,42.514,79.835,37.982z"/><ellipse cx="61.526" cy="53.748" fill="#fff" rx="15.638" ry="14.424"/><ellipse cx="61.526" cy="53.748" fill="#3070b7" rx="8.4" ry="7.748"/><path fill="#1f212b" d="M61.984,82.729c-15.925,0-28.895-11.425-29.014-25.509l-15.43,12.595 c-0.905,0.738-2.045,1.145-3.213,1.145c-1.528,0-2.959-0.675-3.927-1.852c-0.859-1.044-1.26-2.36-1.126-3.705 c0.133-1.346,0.785-2.559,1.835-3.415l26.671-21.771h-14c-2.798,0-5.075-2.27-5.075-5.059s2.277-5.059,5.075-5.059h30.531 l-6.794-5.108c-1.083-0.813-1.783-1.999-1.97-3.339c-0.188-1.339,0.16-2.67,0.977-3.749c1.687-2.225,4.874-2.667,7.105-0.987 c22.297,16.798,26.093,19.703,26.79,20.264l0.003-0.005C87.146,42.079,91,49.314,91,57.023C91,71.198,77.984,82.729,61.984,82.729 z M34.067,54.034c0.161,0,0.322,0.038,0.469,0.117c0.355,0.188,0.563,0.572,0.527,0.973c-0.063,0.699-0.094,1.32-0.094,1.899 c0,13.071,12.119,23.706,27.015,23.706C76.881,80.729,89,70.095,89,57.023c0-7.063-3.555-13.709-9.754-18.233 c-0.029-0.021-0.056-0.043-0.083-0.066c-0.815-0.671-19.551-14.798-26.735-20.21c-1.352-1.018-3.285-0.751-4.309,0.598 c-0.494,0.651-0.703,1.455-0.59,2.264c0.113,0.809,0.537,1.525,1.191,2.018l9.188,6.908c0.344,0.258,0.484,0.708,0.348,1.115 c-0.137,0.408-0.519,0.684-0.949,0.684H23.782c-1.696,0-3.075,1.372-3.075,3.059s1.379,3.059,3.075,3.059h16.806 c0.423,0,0.8,0.266,0.942,0.664s0.018,0.843-0.31,1.11L12.375,63.537c-0.635,0.519-1.029,1.251-1.109,2.063 c-0.081,0.812,0.161,1.606,0.68,2.237c1.04,1.264,3.055,1.466,4.331,0.429L33.435,54.26C33.617,54.11,33.842,54.034,34.067,54.034 z"/><path fill="#1f212b" d="M40.529,67.875c-0.164,0-0.324-0.08-0.42-0.229C38.075,64.51,37,60.943,37,57.334 c0-0.276,0.224-0.5,0.5-0.5s0.5,0.224,0.5,0.5c0,3.416,1.02,6.794,2.948,9.769c0.15,0.232,0.084,0.542-0.147,0.692 C40.716,67.849,40.622,67.875,40.529,67.875z"/><path fill="#1f212b" d="M46.625,74.056c-0.098,0-0.196-0.028-0.283-0.088c-1.302-0.894-2.502-1.901-3.567-2.994 c-0.193-0.197-0.189-0.514,0.009-0.707c0.198-0.191,0.514-0.188,0.707,0.01c1.02,1.045,2.169,2.01,3.418,2.867 c0.228,0.156,0.285,0.468,0.129,0.695C46.94,73.979,46.784,74.056,46.625,74.056z"/><path fill="#1f212b" d="M62,78.668c-4.28,0-8.504-0.938-12.216-2.715c-0.249-0.119-0.354-0.418-0.235-0.667 s0.417-0.354,0.667-0.235c3.577,1.712,7.652,2.617,11.784,2.617c0.276,0,0.5,0.224,0.5,0.5S62.276,78.668,62,78.668z"/><path fill="#1f212b" d="M61.526,68.673c-8.898,0-16.138-6.695-16.138-14.925s7.239-14.925,16.138-14.925 c0.276,0,0.5,0.224,0.5,0.5s-0.224,0.5-0.5,0.5c-8.347,0-15.138,6.247-15.138,13.925s6.791,13.925,15.138,13.925 s15.138-6.247,15.138-13.925c0-6.109-4.439-11.596-10.796-13.343c-0.267-0.073-0.423-0.349-0.35-0.615 c0.073-0.266,0.35-0.424,0.614-0.35c6.79,1.866,11.531,7.75,11.531,14.308C77.664,61.978,70.424,68.673,61.526,68.673z"/><path fill="#1f212b" d="M61.526,61.996c-4.948,0-8.974-3.7-8.974-8.248s4.025-8.248,8.974-8.248 c1.512,0,3.007,0.353,4.325,1.019c0.247,0.125,0.345,0.426,0.221,0.672c-0.125,0.247-0.424,0.346-0.672,0.221 c-1.178-0.596-2.518-0.911-3.874-0.911c-4.396,0-7.974,3.251-7.974,7.248s3.577,7.248,7.974,7.248 c4.397,0,7.974-3.251,7.974-7.248c0-1.362-0.418-2.69-1.21-3.84c-0.157-0.227-0.1-0.538,0.128-0.695 c0.228-0.156,0.54-0.099,0.695,0.129c0.907,1.316,1.387,2.84,1.387,4.406C70.5,58.296,66.474,61.996,61.526,61.996z"/></svg>