<svg xmlns="http://www.w3.org/2000/svg" width="100" height="100" viewBox="0 0 100 100"><path fill="#f59172" d="M70,81.575H31c-6.6,0-12-5.4-12-12v-39c0-6.6,5.4-12,12-12h39c6.6,0,12,5.4,12,12v39C82,76.175,76.6,81.575,70,81.575z"/><path fill="#1f212b" d="M70,82.575H31c-7.18,0-13-5.82-13-13v-39c0-7.18,5.82-13,13-13h39c7.18,0,13,5.82,13,13v39C83,76.755,77.18,82.575,70,82.575z M20,30.575v39c0,6.075,4.925,11,11,11h39c6.075,0,11-4.925,11-11v-39c0-6.075-4.925-11-11-11H31C24.925,19.575,20,24.5,20,30.575z"/><path fill="#f9c4aa" d="M66.879,76.575H33.121C27.554,76.575,23,72.02,23,66.454V32.696c0-5.566,4.554-10.121,10.121-10.121h33.759C72.446,22.575,77,27.129,77,32.696v33.759C77,72.02,72.446,76.575,66.879,76.575z"/><path fill="#1f212b" d="M67.163 77.575H33.837C27.852 77.575 23 72.723 23 66.738V33.413c0-5.986 4.852-10.838 10.838-10.838H67.5c.276 0 .5.224.5.5s-.224.5-.5.5H33.837c-5.433 0-9.837 4.404-9.837 9.837v33.326c0 5.433 4.404 9.837 9.837 9.837h33.326c5.433 0 9.837-4.404 9.837-9.837V48.075c0-.276.224-.5.5-.5s.5.224.5.5v18.663C78 72.723 73.148 77.575 67.163 77.575zM77.5 45.5c-.276 0-.5-.224-.5-.5v-4c0-.276.224-.5.5-.5S78 40.723 78 41v4C78 45.276 77.776 45.5 77.5 45.5zM77.5 39.5c-.276 0-.5-.224-.5-.5v-2c0-.276.224-.5.5-.5S78 36.723 78 37v2C78 39.276 77.776 39.5 77.5 39.5z"/><path fill="#f59172" d="M37.748,58.836c-0.061-0.158-0.176-0.316-0.176-0.475c-0.011-2.666-0.008-5.332-0.008-7.998c0-2.865,0.006-5.731-0.008-8.596c-0.001-0.282,0.173-0.533,0.437-0.631c4.906-1.804,9.806-3.625,14.712-5.429c0.194-0.072,0.515-0.079,0.713-0.017c2.536,0.798,5.063,1.622,7.598,2.421c0.354,0.112,0.478,0.27,0.478,0.653c-0.013,7.537-0.013,15.075,0.001,22.612c0.001,0.407-0.128,0.564-0.507,0.676c-2.526,0.744-5.044,1.518-7.57,2.262c-0.243,0.071-0.502,0.064-0.74-0.021c-4.814-1.719-9.622-3.453-14.43-5.189c-0.18-0.065-0.341-0.184-0.51-0.278C42.82,59.444,47.9,60.061,53,60.68V40.346c-3.357,0.784-6.662,1.556-10,2.336c0,0.229,0,0.424,0,0.62c0,4.13-0.013,8.261,0.015,12.391c0.004,0.594-0.145,0.893-0.718,1.127C40.763,57.447,39.262,58.158,37.748,58.836z"/><path fill="#1f212b" d="M53.435,64.821c-0.193,0-0.387-0.031-0.555-0.094c-4.647-1.715-9.291-3.444-13.933-5.176c-0.149-0.057-0.287-0.14-0.424-0.226l-0.09-0.056c-0.053-0.024-0.101-0.058-0.141-0.099c-0.068-0.064-0.116-0.147-0.14-0.238c-0.008-0.016-0.015-0.032-0.023-0.048c-0.064-0.136-0.153-0.32-0.154-0.544c-0.009-2.156-0.009-4.313-0.008-6.471l0.001-3.498c0.001-2.192,0.002-4.385-0.009-6.576c-0.003-0.562,0.232-0.915,0.74-1.108c2.379-0.903,4.756-1.811,7.133-2.719c2.356-0.899,4.713-1.8,7.07-2.695c0.307-0.116,0.687-0.126,0.99-0.029c1.251,0.407,2.5,0.82,3.748,1.234c1.2,0.396,2.399,0.794,3.6,1.186c0.546,0.178,0.801,0.537,0.8,1.13c-0.012,7.517-0.013,15.035,0.001,22.552c0.001,0.622-0.257,0.979-0.836,1.155c-1.238,0.376-2.474,0.761-3.71,1.145c-1.195,0.371-2.391,0.743-3.589,1.107C53.76,64.798,53.597,64.821,53.435,64.821z M42.425,59.785c3.591,1.339,7.185,2.674,10.781,4.001c0.121,0.044,0.3,0.049,0.427,0.009c1.196-0.364,2.39-0.735,3.584-1.106c1.237-0.384,2.475-0.769,3.715-1.146c0.087-0.026,0.124-0.047,0.136-0.055c-0.003-0.006,0.006-0.048,0.006-0.14c-0.014-7.519-0.013-15.037-0.001-22.556c0-0.081-0.008-0.119-0.011-0.133c0.001,0.006-0.034-0.017-0.112-0.042c-1.203-0.392-2.404-0.789-3.605-1.187c-1.247-0.413-2.493-0.826-3.742-1.232c-0.099-0.031-0.26-0.025-0.367,0.015c-2.356,0.895-4.712,1.794-7.068,2.694c-2.378,0.907-4.755,1.815-7.135,2.72c-0.063,0.023-0.092,0.041-0.103,0.049c0.002,0.005-0.004,0.041-0.003,0.114c0.011,2.194,0.01,4.388,0.009,6.582l-0.001,3.499c0,2.082-0.001,4.164,0.007,6.246l0.742-0.347c1.027-0.482,2.089-0.982,3.155-1.432c0.339-0.144,0.395-0.235,0.392-0.658c-0.021-3.128-0.018-6.255-0.016-9.383l0.001-3.598c0-0.232,0.155-0.435,0.374-0.487l9.656-2.33c0.143-0.034,0.295,0.001,0.411,0.096c0.116,0.095,0.183,0.239,0.183,0.392v20.282c0,0.144-0.06,0.279-0.163,0.374c-0.104,0.095-0.243,0.14-0.379,0.122L42.425,59.785z M40.416,58.525l12.455,1.563V41.001l-8.688,2.097l-0.001,3.202c-0.002,3.125-0.005,6.25,0.016,9.375c0.005,0.83-0.283,1.291-0.994,1.591C42.269,57.66,41.33,58.096,40.416,58.525z"/></svg>